<svg width="50" height="50" viewBox="0 0 50 50" fill="none" xmlns="http://www.w3.org/2000/svg">
<path fill-rule="evenodd" clip-rule="evenodd" d="M19.7916 10.4167C19.7916 11.5217 19.3527 12.5815 18.5713 13.3629C17.7899 14.1443 16.73 14.5833 15.625 14.5833C14.5199 14.5833 13.4601 14.1443 12.6787 13.3629C11.8973 12.5815 11.4583 11.5217 11.4583 10.4167C11.4583 9.3116 11.8973 8.25179 12.6787 7.47039C13.4601 6.68899 14.5199 6.25 15.625 6.25C16.73 6.25 17.7899 6.68899 18.5713 7.47039C19.3527 8.25179 19.7916 9.3116 19.7916 10.4167ZM15.625 29.1667C16.73 29.1667 17.7899 28.7277 18.5713 27.9463C19.3527 27.1649 19.7916 26.1051 19.7916 25C19.7916 23.8949 19.3527 22.8351 18.5713 22.0537C17.7899 21.2723 16.73 20.8333 15.625 20.8333C14.5199 20.8333 13.4601 21.2723 12.6787 22.0537C11.8973 22.8351 11.4583 23.8949 11.4583 25C11.4583 26.1051 11.8973 27.1649 12.6787 27.9463C13.4601 28.7277 14.5199 29.1667 15.625 29.1667ZM15.625 43.75C16.73 43.75 17.7899 43.311 18.5713 42.5296C19.3527 41.7482 19.7916 40.6884 19.7916 39.5833C19.7916 38.4783 19.3527 37.4185 18.5713 36.6371C17.7899 35.8557 16.73 35.4167 15.625 35.4167C14.5199 35.4167 13.4601 35.8557 12.6787 36.6371C11.8973 37.4185 11.4583 38.4783 11.4583 39.5833C11.4583 40.6884 11.8973 41.7482 12.6787 42.5296C13.4601 43.311 14.5199 43.75 15.625 43.75ZM38.5416 10.4167C38.5416 11.5217 38.1027 12.5815 37.3213 13.3629C36.5399 14.1443 35.4801 14.5833 34.375 14.5833C33.2699 14.5833 32.2101 14.1443 31.4287 13.3629C30.6473 12.5815 30.2083 11.5217 30.2083 10.4167C30.2083 9.3116 30.6473 8.25179 31.4287 7.47039C32.2101 6.68899 33.2699 6.25 34.375 6.25C35.4801 6.25 36.5399 6.68899 37.3213 7.47039C38.1027 8.25179 38.5416 9.3116 38.5416 10.4167ZM34.375 29.1667C35.4801 29.1667 36.5399 28.7277 37.3213 27.9463C38.1027 27.1649 38.5416 26.1051 38.5416 25C38.5416 23.8949 38.1027 22.8351 37.3213 22.0537C36.5399 21.2723 35.4801 20.8333 34.375 20.8333C33.2699 20.8333 32.2101 21.2723 31.4287 22.0537C30.6473 22.8351 30.2083 23.8949 30.2083 25C30.2083 26.1051 30.6473 27.1649 31.4287 27.9463C32.2101 28.7277 33.2699 29.1667 34.375 29.1667ZM34.375 43.75C35.4801 43.75 36.5399 43.311 37.3213 42.5296C38.1027 41.7482 38.5416 40.6884 38.5416 39.5833C38.5416 38.4783 38.1027 37.4185 37.3213 36.6371C36.5399 35.8557 35.4801 35.4167 34.375 35.4167C33.2699 35.4167 32.2101 35.8557 31.4287 36.6371C30.6473 37.4185 30.2083 38.4783 30.2083 39.5833C30.2083 40.6884 30.6473 41.7482 31.4287 42.5296C32.2101 43.311 33.2699 43.75 34.375 43.75Z" fill="black"/>
</svg>
